<svg width="47" height="26" viewBox="0 0 47 26" fill="none" xmlns="http://www.w3.org/2000/svg">
												<path d="M13.9414 8.76706C15.0641 8.82872 15.9164 9.13704 16.4982 9.69201C17.0901 10.2367 17.3861 10.951 17.3861 11.8348C17.3861 12.4515 17.2381 13.0013 16.9422 13.4843C16.6462 13.9571 16.2073 14.3322 15.6255 14.6097C15.0437 14.8872 14.3343 15.0259 13.4974 15.0259C12.7217 15.0259 11.9868 14.9026 11.2927 14.6559C10.6089 14.399 10.0577 14.0598 9.63922 13.6385L10.1751 12.7598C10.5323 13.1297 11.0069 13.4329 11.5989 13.6693C12.1909 13.8954 12.8237 14.0085 13.4974 14.0085C14.3752 14.0085 15.0539 13.8183 15.5336 13.4381C16.0133 13.0475 16.2532 12.5131 16.2532 11.8348C16.2532 11.1668 16.0133 10.6427 15.5336 10.2624C15.0539 9.88214 14.3292 9.69201 13.3596 9.69201H12.5941V8.87497L15.5642 5.12892H10.0832V4.1423H16.9728V4.92851L13.9414 8.76706Z" fill="black"></path>
												<path d="M23.3793 8.47416C24.0836 8.47416 24.7062 8.60776 25.2472 8.87497C25.7983 9.14218 26.227 9.52244 26.5332 10.0157C26.8394 10.4988 26.9925 11.064 26.9925 11.7115C26.9925 12.3692 26.8343 12.9499 26.5179 13.4535C26.2015 13.9571 25.7626 14.3476 25.2012 14.6251C24.6501 14.8923 24.0275 15.0259 23.3334 15.0259C21.9147 15.0259 20.8277 14.5583 20.0724 13.6231C19.3171 12.6775 18.9394 11.3466 18.9394 9.63035C18.9394 8.42791 19.1435 7.41046 19.5518 6.57801C19.9601 5.74555 20.5317 5.11864 21.2665 4.69727C22.0014 4.26563 22.8588 4.0498 23.8386 4.0498C24.9001 4.0498 25.7473 4.24507 26.3801 4.63561L25.9361 5.52973C25.4258 5.19058 24.7317 5.021 23.854 5.021C22.67 5.021 21.7412 5.40126 21.0675 6.16178C20.3939 6.91202 20.057 8.00654 20.057 9.44536C20.057 9.70229 20.0724 9.99519 20.103 10.3241C20.3683 9.73826 20.7919 9.28606 21.3737 8.96747C21.9555 8.63859 22.624 8.47416 23.3793 8.47416ZM23.2875 14.0855C24.0632 14.0855 24.6909 13.8748 25.1706 13.4535C25.6605 13.0218 25.9055 12.4514 25.9055 11.7423C25.9055 11.0332 25.6605 10.4679 25.1706 10.0466C24.6909 9.62521 24.0377 9.41453 23.2109 9.41453C22.67 9.41453 22.1903 9.5173 21.7718 9.72284C21.3635 9.92839 21.042 10.211 20.8072 10.5707C20.5725 10.9304 20.4551 11.3312 20.4551 11.7732C20.4551 12.1842 20.5623 12.5645 20.7766 12.9139C21.0012 13.2634 21.3278 13.546 21.7565 13.7618C22.1851 13.9776 22.6955 14.0855 23.2875 14.0855Z" fill="black"></path>
												<path d="M32.5405 15.0259C31.7138 15.0259 30.9738 14.8049 30.3206 14.363C29.6775 13.9211 29.1723 13.289 28.8049 12.4669C28.4476 11.6344 28.269 10.6581 28.269 9.53785C28.269 8.41763 28.4476 7.44643 28.8049 6.62425C29.1723 5.7918 29.6775 5.15461 30.3206 4.71269C30.9738 4.27077 31.7138 4.0498 32.5405 4.0498C33.3673 4.0498 34.1022 4.27077 34.7452 4.71269C35.3984 5.15461 35.9088 5.7918 36.2762 6.62425C36.6436 7.44643 36.8274 8.41763 36.8274 9.53785C36.8274 10.6581 36.6436 11.6344 36.2762 12.4669C35.9088 13.289 35.3984 13.9211 34.7452 14.363C34.1022 14.8049 33.3673 15.0259 32.5405 15.0259ZM32.5405 14.0085C33.1631 14.0085 33.7092 13.8337 34.1787 13.4843C34.6584 13.1349 35.031 12.6262 35.2964 11.9581C35.5617 11.2901 35.6944 10.4834 35.6944 9.53785C35.6944 8.59235 35.5617 7.78558 35.2964 7.11756C35.031 6.44954 34.6584 5.94082 34.1787 5.59139C33.7092 5.24196 33.1631 5.06725 32.5405 5.06725C31.9179 5.06725 31.3668 5.24196 30.887 5.59139C30.4175 5.94082 30.0501 6.44954 29.7847 7.11756C29.5193 7.78558 29.3866 8.59235 29.3866 9.53785C29.3866 10.4834 29.5193 11.2901 29.7847 11.9581C30.0501 12.6262 30.4175 13.1349 30.887 13.4843C31.3668 13.8337 31.9179 14.0085 32.5405 14.0085Z" fill="black"></path>
												<path d="M40.839 4.88683C40.3899 4.88683 39.9766 4.77892 39.5989 4.5631C39.2315 4.34727 38.9406 4.05437 38.7262 3.68439C38.5119 3.30413 38.4047 2.88791 38.4047 2.43571C38.4047 1.99379 38.5119 1.58783 38.7262 1.21785C38.9406 0.837595 39.2315 0.539555 39.5989 0.323734C39.9766 0.107911 40.3899 0 40.839 0C41.2881 0 41.7015 0.107911 42.0792 0.323734C42.4568 0.539555 42.7528 0.837595 42.9671 1.21785C43.1815 1.58783 43.2887 1.99379 43.2887 2.43571C43.2887 2.88791 43.1815 3.30413 42.9671 3.68439C42.7528 4.05437 42.4568 4.34727 42.0792 4.5631C41.7015 4.77892 41.2881 4.88683 40.839 4.88683ZM40.839 4.23936C41.3392 4.23936 41.7576 4.06979 42.0945 3.73064C42.4415 3.38121 42.615 2.94957 42.615 2.43571C42.615 1.93212 42.4415 1.51076 42.0945 1.17161C41.7576 0.82218 41.3392 0.647466 40.839 0.647466C40.3389 0.647466 39.9204 0.82218 39.5836 1.17161C39.2468 1.51076 39.0784 1.93212 39.0784 2.43571C39.0784 2.94957 39.2468 3.38121 39.5836 3.73064C39.9204 4.06979 40.3389 4.23936 40.839 4.23936Z" fill="black"></path>
												<path fill-rule="evenodd" clip-rule="evenodd" d="M45.135 16.0176C45.607 15.3621 45.6676 14.766 45.4069 14.1736C45.0032 13.2565 44.027 11.9587 42.5913 11.1665C41.1557 10.3744 39.6693 9.70011 38.3855 9.35107V9.35286C39.6216 9.54272 41.5692 9.8368 43.2015 10.5893C44.8339 11.3418 46.0854 12.1379 46.7229 13.5863C47.22 14.7157 47.0297 15.8556 46.3005 16.8683C45.5984 17.8434 44.3995 18.7086 42.8283 19.4581C39.6758 20.9618 34.9619 22.027 29.5887 22.4905L29.4659 21.0464C34.7567 20.59 39.2788 19.5473 42.212 18.1482C43.6835 17.4462 44.6359 16.7108 45.135 16.0176ZM4.96421 18.2308C7.96639 19.6186 12.5391 20.6407 17.8502 21.0728L17.7342 22.5176C12.3399 22.0786 7.58033 21.0351 4.3636 19.5481C2.75998 18.8068 1.52886 17.9509 0.788493 16.9877C0.0235989 15.9926 -0.226222 14.8589 0.223126 13.7161C0.816059 12.2083 2.71549 11.3911 3.98177 10.8026C5.24804 10.2142 7.0886 9.89937 8.32295 9.5538C7.11266 10.1021 5.09497 10.9708 4.17658 11.5172C3.25818 12.0636 1.92795 13.3179 1.56154 14.2497C1.3325 14.8322 1.41374 15.433 1.92686 16.1005C2.46452 16.8 3.45838 17.5347 4.96421 18.2308Z" fill="black"></path>
												<path d="M21.8954 21.8781L16.5093 25.5112L16.774 17.8757L21.8954 21.8781Z" fill="black"></path>
											</svg>