<svg width="129" height="70" viewBox="0 0 129 70" fill="none" xmlns="http://www.w3.org/2000/svg">
								<path d="M38.2657 23.8976C41.3472 24.0657 43.6864 24.9061 45.2832 26.4189C46.9081 27.9037 47.7205 29.8506 47.7205 32.2599C47.7205 33.9407 47.3143 35.4395 46.5019 36.7562C45.6894 38.0448 44.4848 39.0673 42.888 39.8237C41.2912 40.5801 39.3442 40.9583 37.047 40.9583C34.918 40.9583 32.9009 40.6221 30.996 39.9498C29.119 39.2494 27.6062 38.325 26.4576 37.1764L27.9284 34.7812C28.9089 35.7897 30.2116 36.6161 31.8364 37.2604C33.4612 37.8767 35.1981 38.1849 37.047 38.1849C39.4563 38.1849 41.3192 37.6666 42.6359 36.6301C43.9526 35.5656 44.6109 34.1088 44.6109 32.2599C44.6109 30.4389 43.9526 29.0102 42.6359 27.9737C41.3192 26.9372 39.3302 26.4189 36.6688 26.4189H34.5678V24.1918L42.7199 13.9806H27.6763V11.2912H46.5859V13.4343L38.2657 23.8976Z" fill="white"></path>
								<path d="M38.2657 23.8976C41.3472 24.0657 43.6864 24.9061 45.2832 26.4189C46.9081 27.9037 47.7205 29.8506 47.7205 32.2599C47.7205 33.9407 47.3143 35.4395 46.5019 36.7562C45.6894 38.0448 44.4848 39.0673 42.888 39.8237C41.2912 40.5801 39.3442 40.9583 37.047 40.9583C34.918 40.9583 32.9009 40.6221 30.996 39.9498C29.119 39.2494 27.6062 38.325 26.4576 37.1764L27.9284 34.7812C28.9089 35.7897 30.2116 36.6161 31.8364 37.2604C33.4612 37.8767 35.1981 38.1849 37.047 38.1849C39.4563 38.1849 41.3192 37.6666 42.6359 36.6301C43.9526 35.5656 44.6109 34.1088 44.6109 32.2599C44.6109 30.4389 43.9526 29.0102 42.6359 27.9737C41.3192 26.9372 39.3302 26.4189 36.6688 26.4189H34.5678V24.1918L42.7199 13.9806H27.6763V11.2912H46.5859V13.4343L38.2657 23.8976Z" fill="white"></path>
								<path d="M64.1699 23.0992C66.1029 23.0992 67.8117 23.4634 69.2965 24.1918C70.8093 24.9201 71.9859 25.9567 72.8263 27.3013C73.6667 28.618 74.0869 30.1588 74.0869 31.9237C74.0869 33.7166 73.6527 35.2994 72.7843 36.6721C71.9158 38.0448 70.7112 39.1094 69.1704 39.8657C67.6577 40.5941 65.9488 40.9583 64.0438 40.9583C60.1498 40.9583 57.1663 39.6837 55.0933 37.1344C53.0202 34.557 51.9837 30.9292 51.9837 26.2508C51.9837 22.9731 52.544 20.1997 53.6645 17.9306C54.7851 15.6614 56.3539 13.9525 58.3709 12.804C60.388 11.6274 62.7412 11.0391 65.4305 11.0391C68.344 11.0391 70.6692 11.5713 72.4061 12.6359L71.1875 15.0731C69.7867 14.1486 67.8818 13.6864 65.4725 13.6864C62.2229 13.6864 59.6736 14.7229 57.8246 16.796C55.9757 18.841 55.0512 21.8246 55.0512 25.7466C55.0512 26.4469 55.0933 27.2453 55.1773 28.1418C55.9057 26.545 57.0683 25.3123 58.6651 24.4439C60.2619 23.5474 62.0968 23.0992 64.1699 23.0992ZM63.9178 38.395C66.0468 38.395 67.7697 37.8207 69.0864 36.6721C70.4311 35.4955 71.1034 33.9407 71.1034 32.0077C71.1034 30.0748 70.4311 28.534 69.0864 27.3854C67.7697 26.2368 65.9768 25.6625 63.7076 25.6625C62.2229 25.6625 60.9062 25.9427 59.7576 26.5029C58.6371 27.0632 57.7546 27.8336 57.1103 28.8141C56.466 29.7946 56.1438 30.8872 56.1438 32.0918C56.1438 33.2124 56.4379 34.2489 57.0262 35.2014C57.6426 36.1539 58.539 36.9242 59.7156 37.5125C60.8922 38.1008 62.2929 38.395 63.9178 38.395Z" fill="white"></path>
								<path d="M64.1699 23.0992C66.1029 23.0992 67.8117 23.4634 69.2965 24.1918C70.8093 24.9201 71.9859 25.9567 72.8263 27.3013C73.6667 28.618 74.0869 30.1588 74.0869 31.9237C74.0869 33.7166 73.6527 35.2994 72.7843 36.6721C71.9158 38.0448 70.7112 39.1094 69.1704 39.8657C67.6577 40.5941 65.9488 40.9583 64.0438 40.9583C60.1498 40.9583 57.1663 39.6837 55.0933 37.1344C53.0202 34.557 51.9837 30.9292 51.9837 26.2508C51.9837 22.9731 52.544 20.1997 53.6645 17.9306C54.7851 15.6614 56.3539 13.9525 58.3709 12.804C60.388 11.6274 62.7412 11.0391 65.4305 11.0391C68.344 11.0391 70.6692 11.5713 72.4061 12.6359L71.1875 15.0731C69.7867 14.1486 67.8818 13.6864 65.4725 13.6864C62.2229 13.6864 59.6736 14.7229 57.8246 16.796C55.9757 18.841 55.0512 21.8246 55.0512 25.7466C55.0512 26.4469 55.0933 27.2453 55.1773 28.1418C55.9057 26.545 57.0683 25.3123 58.6651 24.4439C60.2619 23.5474 62.0968 23.0992 64.1699 23.0992ZM63.9178 38.395C66.0468 38.395 67.7697 37.8207 69.0864 36.6721C70.4311 35.4955 71.1034 33.9407 71.1034 32.0077C71.1034 30.0748 70.4311 28.534 69.0864 27.3854C67.7697 26.2368 65.9768 25.6625 63.7076 25.6625C62.2229 25.6625 60.9062 25.9427 59.7576 26.5029C58.6371 27.0632 57.7546 27.8336 57.1103 28.8141C56.466 29.7946 56.1438 30.8872 56.1438 32.0918C56.1438 33.2124 56.4379 34.2489 57.0262 35.2014C57.6426 36.1539 58.539 36.9242 59.7156 37.5125C60.8922 38.1008 62.2929 38.395 63.9178 38.395Z" fill="white"></path>
								<path d="M89.3144 40.9583C87.0453 40.9583 85.0142 40.356 83.2213 39.1514C81.4564 37.9468 80.0697 36.2239 79.0612 33.9827C78.0807 31.7136 77.5905 29.0522 77.5905 25.9987C77.5905 22.9451 78.0807 20.2978 79.0612 18.0566C80.0697 15.7875 81.4564 14.0506 83.2213 12.846C85.0142 11.6414 87.0453 11.0391 89.3144 11.0391C91.5836 11.0391 93.6006 11.6414 95.3655 12.846C97.1584 14.0506 98.5592 15.7875 99.5677 18.0566C100.576 20.2978 101.08 22.9451 101.08 25.9987C101.08 29.0522 100.576 31.7136 99.5677 33.9827C98.5592 36.2239 97.1584 37.9468 95.3655 39.1514C93.6006 40.356 91.5836 40.9583 89.3144 40.9583ZM89.3144 38.1849C91.0233 38.1849 92.5221 37.7086 93.8107 36.7562C95.1274 35.8037 96.1499 34.417 96.8783 32.596C97.6067 30.7751 97.9708 28.576 97.9708 25.9987C97.9708 23.4214 97.6067 21.2222 96.8783 19.4013C96.1499 17.5804 95.1274 16.1937 93.8107 15.2412C92.5221 14.2887 91.0233 13.8125 89.3144 13.8125C87.6056 13.8125 86.0928 14.2887 84.7761 15.2412C83.4875 16.1937 82.479 17.5804 81.7506 19.4013C81.0222 21.2222 80.658 23.4214 80.658 25.9987C80.658 28.576 81.0222 30.7751 81.7506 32.596C82.479 34.417 83.4875 35.8037 84.7761 36.7562C86.0928 37.7086 87.6056 38.1849 89.3144 38.1849Z" fill="white"></path>
								<path d="M89.3144 40.9583C87.0453 40.9583 85.0142 40.356 83.2213 39.1514C81.4564 37.9468 80.0697 36.2239 79.0612 33.9827C78.0807 31.7136 77.5905 29.0522 77.5905 25.9987C77.5905 22.9451 78.0807 20.2978 79.0612 18.0566C80.0697 15.7875 81.4564 14.0506 83.2213 12.846C85.0142 11.6414 87.0453 11.0391 89.3144 11.0391C91.5836 11.0391 93.6006 11.6414 95.3655 12.846C97.1584 14.0506 98.5592 15.7875 99.5677 18.0566C100.576 20.2978 101.08 22.9451 101.08 25.9987C101.08 29.0522 100.576 31.7136 99.5677 33.9827C98.5592 36.2239 97.1584 37.9468 95.3655 39.1514C93.6006 40.356 91.5836 40.9583 89.3144 40.9583ZM89.3144 38.1849C91.0233 38.1849 92.5221 37.7086 93.8107 36.7562C95.1274 35.8037 96.1499 34.417 96.8783 32.596C97.6067 30.7751 97.9708 28.576 97.9708 25.9987C97.9708 23.4214 97.6067 21.2222 96.8783 19.4013C96.1499 17.5804 95.1274 16.1937 93.8107 15.2412C92.5221 14.2887 91.0233 13.8125 89.3144 13.8125C87.6056 13.8125 86.0928 14.2887 84.7761 15.2412C83.4875 16.1937 82.479 17.5804 81.7506 19.4013C81.0222 21.2222 80.658 23.4214 80.658 25.9987C80.658 28.576 81.0222 30.7751 81.7506 32.596C82.479 34.417 83.4875 35.8037 84.7761 36.7562C86.0928 37.7086 87.6056 38.1849 89.3144 38.1849Z" fill="white"></path>
								<path d="M112.091 13.3208C110.858 13.3208 109.723 13.0266 108.687 12.4383C107.678 11.85 106.88 11.0516 106.292 10.0431C105.703 9.00659 105.409 7.87201 105.409 6.63938C105.409 5.43477 105.703 4.3282 106.292 3.31969C106.88 2.28316 107.678 1.47075 108.687 0.882451C109.723 0.29415 110.858 0 112.091 0C113.323 0 114.458 0.29415 115.494 0.882451C116.531 1.47075 117.343 2.28316 117.932 3.31969C118.52 4.3282 118.814 5.43477 118.814 6.63938C118.814 7.87201 118.52 9.00659 117.932 10.0431C117.343 11.0516 116.531 11.85 115.494 12.4383C114.458 13.0266 113.323 13.3208 112.091 13.3208ZM112.091 11.5559C113.463 11.5559 114.612 11.0937 115.536 10.1692C116.489 9.2167 116.965 8.0401 116.965 6.63938C116.965 5.26668 116.489 4.1181 115.536 3.19363C114.612 2.24114 113.463 1.7649 112.091 1.7649C110.718 1.7649 109.569 2.24114 108.645 3.19363C107.72 4.1181 107.258 5.26668 107.258 6.63938C107.258 8.0401 107.72 9.2167 108.645 10.1692C109.569 11.0937 110.718 11.5559 112.091 11.5559Z" fill="white"></path>
								<path d="M112.091 13.3208C110.858 13.3208 109.723 13.0266 108.687 12.4383C107.678 11.85 106.88 11.0516 106.292 10.0431C105.703 9.00659 105.409 7.87201 105.409 6.63938C105.409 5.43477 105.703 4.3282 106.292 3.31969C106.88 2.28316 107.678 1.47075 108.687 0.882451C109.723 0.29415 110.858 0 112.091 0C113.323 0 114.458 0.29415 115.494 0.882451C116.531 1.47075 117.343 2.28316 117.932 3.31969C118.52 4.3282 118.814 5.43477 118.814 6.63938C118.814 7.87201 118.52 9.00659 117.932 10.0431C117.343 11.0516 116.531 11.85 115.494 12.4383C114.458 13.0266 113.323 13.3208 112.091 13.3208ZM112.091 11.5559C113.463 11.5559 114.612 11.0937 115.536 10.1692C116.489 9.2167 116.965 8.0401 116.965 6.63938C116.965 5.26668 116.489 4.1181 115.536 3.19363C114.612 2.24114 113.463 1.7649 112.091 1.7649C110.718 1.7649 109.569 2.24114 108.645 3.19363C107.72 4.1181 107.258 5.26668 107.258 6.63938C107.258 8.0401 107.72 9.2167 108.645 10.1692C109.569 11.0937 110.718 11.5559 112.091 11.5559Z" fill="white"></path>
								<path fill-rule="evenodd" clip-rule="evenodd" d="M123.881 43.6611C125.177 41.8744 125.343 40.2496 124.627 38.6347C123.519 36.1348 120.84 32.5971 116.9 30.438C112.959 28.2788 108.879 26.4407 105.356 25.4893V25.4941C108.749 26.0117 114.094 26.8133 118.574 28.8645C123.055 30.9157 126.49 33.0856 128.239 37.0337C129.604 40.1125 129.082 43.2195 127.08 45.9802C125.153 48.6381 121.862 50.9964 117.55 53.0394C108.897 57.1384 95.9593 60.0421 81.2116 61.3055L80.8744 57.3689C95.3962 56.1249 107.808 53.2827 115.858 49.4688C119.897 47.5555 122.511 45.5507 123.881 43.6611ZM13.6252 49.6942C21.8652 53.4771 34.4158 56.263 48.993 57.4411L48.6748 61.3792C33.869 60.1827 20.8056 57.3382 11.9767 53.2848C7.57526 51.2641 4.19622 48.931 2.16416 46.3056C0.0647715 43.5932 -0.620907 40.5027 0.61241 37.3878C2.23982 33.2776 7.45316 31.0501 10.9287 29.446C14.4042 27.8419 19.456 26.9838 22.8438 26.0419C19.522 27.5364 13.9841 29.9043 11.4634 31.3938C8.94267 32.8833 5.29162 36.3023 4.28593 38.8423C3.65728 40.43 3.88025 42.0677 5.28862 43.8873C6.76432 45.7939 9.49215 47.7967 13.6252 49.6942Z" fill="white"></path>
								<path fill-rule="evenodd" clip-rule="evenodd" d="M123.881 43.6611C125.177 41.8744 125.343 40.2496 124.627 38.6347C123.519 36.1348 120.84 32.5971 116.9 30.438C112.959 28.2788 108.879 26.4407 105.356 25.4893V25.4941C108.749 26.0117 114.094 26.8133 118.574 28.8645C123.055 30.9157 126.49 33.0856 128.239 37.0337C129.604 40.1125 129.082 43.2195 127.08 45.9802C125.153 48.6381 121.862 50.9964 117.55 53.0394C108.897 57.1384 95.9593 60.0421 81.2116 61.3055L80.8744 57.3689C95.3962 56.1249 107.808 53.2827 115.858 49.4688C119.897 47.5555 122.511 45.5507 123.881 43.6611ZM13.6252 49.6942C21.8652 53.4771 34.4158 56.263 48.993 57.4411L48.6748 61.3792C33.869 60.1827 20.8056 57.3382 11.9767 53.2848C7.57526 51.2641 4.19622 48.931 2.16416 46.3056C0.0647715 43.5932 -0.620907 40.5027 0.61241 37.3878C2.23982 33.2776 7.45316 31.0501 10.9287 29.446C14.4042 27.8419 19.456 26.9838 22.8438 26.0419C19.522 27.5364 13.9841 29.9043 11.4634 31.3938C8.94267 32.8833 5.29162 36.3023 4.28593 38.8423C3.65728 40.43 3.88025 42.0677 5.28862 43.8873C6.76432 45.7939 9.49215 47.7967 13.6252 49.6942Z" fill="white"></path>
								<path d="M60.0958 59.6361L45.3128 69.5393L46.0393 48.7262L60.0958 59.6361Z" fill="white"></path>
								<path d="M60.0958 59.6361L45.3128 69.5393L46.0393 48.7262L60.0958 59.6361Z" fill="white"></path>
							</svg>