<svg width="18" height="18" viewBox="0 0 18 18" fill="none" xmlns="http://www.w3.org/2000/svg">
              <path
                d="M1.5 15.75V2.25H8.8125V5.34375H16.5V15.75H1.5ZM2.625 14.625H4.59375V12.6562H2.625V14.625ZM2.625 11.5312H4.59375V9.5625H2.625V11.5312ZM2.625 8.4375H4.59375V6.46875H2.625V8.4375ZM2.625 5.34375H4.59375V3.375H2.625V5.34375ZM5.71875 14.625H7.6875V12.6562H5.71875V14.625ZM5.71875 11.5312H7.6875V9.5625H5.71875V11.5312ZM5.71875 8.4375H7.6875V6.46875H5.71875V8.4375ZM5.71875 5.34375H7.6875V3.375H5.71875V5.34375ZM8.8125 14.625H15.375V6.46875H8.8125V8.4375H10.3125V9.5625H8.8125V11.5312H10.3125V12.6562H8.8125V14.625ZM12.2812 9.5625V8.4375H13.4062V9.5625H12.2812ZM12.2812 12.6562V11.5312H13.4062V12.6562H12.2812Z"
                fill="black" />
            </svg>