<svg width="129" height="45" viewBox="0 0 129 45" fill="none" xmlns="http://www.w3.org/2000/svg">
<path fill-rule="evenodd" clip-rule="evenodd" d="M87.8679 0.0176624C87.4067 0.0308436 85.5368 0.0953509 83.7128 0.160947C81.8887 0.22662 79.3156 0.297955 77.9947 0.319588C76.6738 0.34122 75.31 0.378284 74.9641 0.401932L74.3351 0.44504V22.5242V44.6034L76.2221 44.6578C77.2599 44.6878 79.2069 44.7628 80.5488 44.8248C84.3774 45.0014 88.1302 45.0508 89.6215 44.9441C95.8346 44.4998 100.692 42.5731 104.492 39.0456C108.152 35.6486 110.308 30.943 110.886 25.0876C111.218 21.7379 111.066 18.0607 110.471 15.0079C109.302 9.00839 106.445 5.04744 101.47 2.5317C97.8846 0.718743 93.2578 -0.136402 87.8679 0.0176624ZM120.575 0.0449544C118.703 0.237477 116.877 1.11115 115.573 2.43819C114.919 3.10407 114.521 3.69498 114.21 4.46204C113.445 6.34734 113.522 8.9735 114.397 10.8479C114.979 12.0967 115.928 13.0518 117.221 13.6919C118.156 14.1548 118.917 14.3593 120.143 14.4772C122.801 14.7327 125.329 13.9078 127.042 12.2259C128.376 10.9174 129 9.29527 129 7.13798C129 4.35574 127.864 2.1641 125.798 0.958562C124.622 0.272521 122.305 -0.132914 120.575 0.0449544ZM0 22.4902V44.7044H13.7615H27.523V40.1685V35.6326H18.8316H10.1401V17.9543V0.276011H5.07004H0V22.4902ZM20.3327 15.7254C18.9989 24.2223 17.9096 31.2007 17.9121 31.233C17.9146 31.2653 20.1031 31.2827 22.7754 31.2717L27.6341 31.2518L27.776 30.1422C27.854 29.532 28.2705 26.1476 28.7015 22.6212C29.1325 19.0949 29.5059 16.297 29.5314 16.4036C29.5568 16.5102 29.6486 17.0161 29.7353 17.5279C30.0841 19.5857 30.9017 23.0022 31.8786 26.4833C32.088 27.2296 33.3756 31.4166 34.74 35.7877C36.1043 40.1588 37.2873 43.9535 37.3688 44.2203L37.5171 44.7055L42.3717 44.6855L47.2263 44.6656L47.4802 43.8127C47.6198 43.3436 49.0035 38.6681 50.555 33.4228C53.2949 24.16 53.5787 23.1237 54.8593 17.7009C55.0584 16.8579 55.23 16.1776 55.2407 16.189C55.2513 16.2004 55.3161 16.768 55.3845 17.4503C55.5672 19.2724 55.925 22.2014 56.1856 24.008C56.3629 25.2375 59.0721 43.0865 59.2828 44.4136L59.329 44.7044H64.6211C68.92 44.7044 69.9131 44.6854 69.9131 44.6032C69.9131 44.5477 68.3521 34.5866 66.4441 22.4676C64.5362 10.3485 62.9752 0.397668 62.9752 0.35448C62.9752 0.30222 61.0655 0.276011 57.2604 0.276011H51.5456L51.3471 0.915686C51.238 1.26755 49.8318 5.67254 48.2223 10.7047C44.7163 21.6661 43.9102 24.3607 43.1888 27.53C42.9947 28.3829 42.818 29.1331 42.7961 29.1971C42.7743 29.261 42.575 28.4062 42.3533 27.2974C41.9524 25.2934 41.4905 23.3236 41.1259 22.0637C41.021 21.7012 39.4536 16.6508 37.6427 10.8403L34.3502 0.276011L28.5541 0.276324L22.758 0.276707L20.3327 15.7254ZM122.395 4.80793C123.146 5.18104 123.6 5.98463 123.646 7.02168C123.726 8.82254 122.627 10.0294 121.059 9.86269C119.784 9.72723 119.149 9.00265 119.037 7.55691C118.937 6.25942 119.507 5.17701 120.505 4.77072C120.993 4.57176 121.958 4.59075 122.395 4.80793ZM91.7181 8.87581C95.8202 9.63442 98.14 11.7048 99.3717 15.7064C100.527 19.4609 100.549 24.8529 99.4219 28.3427C98.8218 30.2013 98.0235 31.5474 96.7515 32.8458C94.9378 34.6969 92.7562 35.7412 89.9665 36.0937C88.7714 36.2447 85.9469 36.1816 84.6848 35.9758L84.3989 35.9291V22.2835V8.638L87.582 8.66878C90.4831 8.69685 90.8495 8.71523 91.7181 8.87581Z" fill="white"/>
</svg>
