<svg width="650" height="51" viewBox="0 0 650 51" fill="none" xmlns="http://www.w3.org/2000/svg">
<path d="M10.96 38.8L10.33 25.71L33.78 0.999997H46.38L25.24 23.75L18.94 30.47L10.96 38.8ZM0.81 50V0.999997H12.08V50H0.81ZM34.34 50L16.91 28.65L24.33 20.6L47.57 50H34.34ZM63.0564 20.74H86.6464V29.56H63.0564V20.74ZM63.8964 40.9H90.5664V50H52.6264V0.999997H89.6564V10.1H63.8964V40.9ZM109.739 50V10.24H94.0593V0.999997H136.759V10.24H121.079V50H109.739ZM163.81 50.84C156.857 50.84 151.42 48.9033 147.5 45.03C143.58 41.1567 141.62 35.6267 141.62 28.44V0.999997H152.96V28.02C152.96 32.6867 153.917 36.0467 155.83 38.1C157.744 40.1533 160.427 41.18 163.88 41.18C167.334 41.18 170.017 40.1533 171.93 38.1C173.844 36.0467 174.8 32.6867 174.8 28.02V0.999997H186V28.44C186 35.6267 184.04 41.1567 180.12 45.03C176.2 48.9033 170.764 50.84 163.81 50.84ZM197.206 50V0.999997H218.416C222.803 0.999997 226.583 1.72333 229.756 3.17C232.93 4.57 235.38 6.6 237.106 9.26C238.833 11.92 239.696 15.0933 239.696 18.78C239.696 22.42 238.833 25.57 237.106 28.23C235.38 30.8433 232.93 32.85 229.756 34.25C226.583 35.65 222.803 36.35 218.416 36.35H203.506L208.546 31.38V50H197.206ZM228.356 50L216.106 32.22H228.216L240.606 50H228.356ZM208.546 32.64L203.506 27.32H217.786C221.286 27.32 223.9 26.5733 225.626 25.08C227.353 23.54 228.216 21.44 228.216 18.78C228.216 16.0733 227.353 13.9733 225.626 12.48C223.9 10.9867 221.286 10.24 217.786 10.24H203.506L208.546 4.85V32.64ZM242.241 50L264.081 0.999997H275.281L297.191 50H285.291L267.371 6.74H271.851L253.861 50H242.241ZM253.161 39.5L256.171 30.89H281.371L284.451 39.5H253.161ZM335.875 0.999997H347.215V50H335.875V0.999997ZM313.615 50H302.275V0.999997H313.615V50ZM336.715 29.91H312.775V20.32H336.715V29.91ZM388.782 50V10.24H373.102V0.999997H415.802V10.24H400.122V50H388.782ZM445.02 50.84C441.147 50.84 437.553 50.21 434.24 48.95C430.973 47.69 428.127 45.9167 425.7 43.63C423.32 41.3433 421.453 38.66 420.1 35.58C418.793 32.5 418.14 29.14 418.14 25.5C418.14 21.86 418.793 18.5 420.1 15.42C421.453 12.34 423.343 9.65667 425.77 7.37C428.197 5.08333 431.043 3.31 434.31 2.05C437.577 0.789998 441.123 0.159999 444.95 0.159999C448.823 0.159999 452.37 0.789998 455.59 2.05C458.857 3.31 461.68 5.08333 464.06 7.37C466.487 9.65667 468.377 12.34 469.73 15.42C471.083 18.4533 471.76 21.8133 471.76 25.5C471.76 29.14 471.083 32.5233 469.73 35.65C468.377 38.73 466.487 41.4133 464.06 43.7C461.68 45.94 458.857 47.69 455.59 48.95C452.37 50.21 448.847 50.84 445.02 50.84ZM444.95 41.18C447.143 41.18 449.15 40.8067 450.97 40.06C452.837 39.3133 454.47 38.24 455.87 36.84C457.27 35.44 458.343 33.7833 459.09 31.87C459.883 29.9567 460.28 27.8333 460.28 25.5C460.28 23.1667 459.883 21.0433 459.09 19.13C458.343 17.2167 457.27 15.56 455.87 14.16C454.517 12.76 452.907 11.6867 451.04 10.94C449.173 10.1933 447.143 9.82 444.95 9.82C442.757 9.82 440.727 10.1933 438.86 10.94C437.04 11.6867 435.43 12.76 434.03 14.16C432.63 15.56 431.533 17.2167 430.74 19.13C429.993 21.0433 429.62 23.1667 429.62 25.5C429.62 27.7867 429.993 29.91 430.74 31.87C431.533 33.7833 432.607 35.44 433.96 36.84C435.36 38.24 436.993 39.3133 438.86 40.06C440.727 40.8067 442.757 41.18 444.95 41.18ZM490.47 50L474.44 0.999997H486.2L500.13 44.4H494.25L508.81 0.999997H519.31L533.31 44.4H527.64L541.92 0.999997H552.77L536.74 50H524.56L512.17 11.92H515.39L502.65 50H490.47ZM569.531 20.74H593.121V29.56H569.531V20.74ZM570.371 40.9H597.041V50H559.101V0.999997H596.131V10.1H570.371V40.9ZM606.064 50V0.999997H627.274C631.661 0.999997 635.441 1.72333 638.614 3.17C641.787 4.57 644.237 6.6 645.964 9.26C647.691 11.92 648.554 15.0933 648.554 18.78C648.554 22.42 647.691 25.57 645.964 28.23C644.237 30.8433 641.787 32.85 638.614 34.25C635.441 35.65 631.661 36.35 627.274 36.35H612.364L617.404 31.38V50H606.064ZM637.214 50L624.964 32.22H637.074L649.464 50H637.214ZM617.404 32.64L612.364 27.32H626.644C630.144 27.32 632.757 26.5733 634.484 25.08C636.211 23.54 637.074 21.44 637.074 18.78C637.074 16.0733 636.211 13.9733 634.484 12.48C632.757 10.9867 630.144 10.24 626.644 10.24H612.364L617.404 4.85V32.64Z" fill="white"/>
</svg>
