<svg xmlns="http://www.w3.org/2000/svg" width="294" height="68" viewBox="0 0 294 68" fill="none">
<path d="M0.565322 0H69.156C69.156 8.86971 69.156 17.7376 69.156 26.6036H62.3816C62.3816 20.0213 62.3816 13.439 62.3816 6.85661C44.0343 6.85661 25.687 6.85661 7.33971 6.85661C7.3764 24.5604 7.25221 42.2669 7.39899 59.9734C19.0312 60.1818 30.6662 59.9871 42.2984 60.0749C43.7746 62.4226 45.3327 64.7374 46.7074 67.1317C31.3267 67.2688 15.9404 67.1564 0.5625 67.192C0.564382 44.7919 0.565322 22.3946 0.565322 0Z" fill="white"/>
<path d="M106.234 47.2503C108.174 41.6745 113.94 37.7114 119.972 37.6209C124.079 37.3192 128.158 38.6302 131.545 40.838C130.732 42.9855 129.894 45.1275 128.991 47.2421C127.452 46.3891 125.973 45.3469 124.212 44.9876C121.437 44.2636 118.239 44.7353 116.1 46.6963C113.068 49.8421 112.712 55.4069 115.817 58.6213C118.191 60.9882 122.256 61.3365 125.084 59.5648C125.084 58.4513 125.077 57.3396 125.062 56.2297L119.134 56.2133V49.6309H132.683C132.683 54.3922 132.683 59.1534 132.683 63.9146C129.228 66.373 125.105 67.7903 120.828 67.9902C114.42 68.1383 107.719 64.2684 105.882 58.1167C105.021 54.5677 104.801 50.6869 106.234 47.2503Z" fill="white"/>
<path d="M160.824 37.6787C165.862 37.015 171.299 38.8745 174.519 42.7608C179.738 48.7425 179.405 58.7559 173.32 64.0656C169.58 67.0826 164.434 68.6897 159.61 67.7161C156.81 66.9564 153.874 66.1007 151.735 64.0821C148.065 61.046 146.801 56.0516 147.185 51.5373C147.357 44.4722 153.615 38.2601 160.824 37.6787ZM161.388 44.7931C159.822 44.9439 158.495 45.9258 157.408 46.9598C155.21 49.8588 155.015 53.9755 156.562 57.2008C158.501 60.7937 164.002 61.8276 167.152 59.1645C169.879 56.8251 169.811 52.8181 169.128 49.6393C168.321 46.414 164.79 44.1019 161.388 44.7849V44.7931Z" fill="white"/>
<path d="M39.1608 38.1556C41.8084 38.1337 44.457 38.1245 47.1066 38.1282C49.4465 41.6635 51.8684 45.1494 54.2874 48.6353C57.1665 45.196 59.9158 41.6552 62.6905 38.1337C64.8432 38.1209 66.9997 38.1209 69.16 38.1337C69.16 47.8244 69.16 57.515 69.16 67.2057C66.996 67.2057 64.8319 67.2057 62.6679 67.2057C62.6284 61.2871 62.7864 55.363 62.5691 49.4471C59.5573 52.9248 57.0649 56.7864 54.2874 60.4369C49.1596 53.0573 44.1174 45.6302 39.1608 38.1556Z" fill="white"/>
<path d="M85.7447 38.1036L92.5896 38.1228C96.4595 47.8126 100.408 57.4721 104.273 67.1619C101.506 67.1839 98.743 67.1893 95.9825 67.1948C95.3332 65.6343 94.7038 64.0682 94.0066 62.5323C90.7916 62.5323 87.5766 62.5323 84.3616 62.5323C83.6869 64.0792 83.0462 65.6425 82.4111 67.1948C79.6477 67.1948 76.89 67.1948 74.1294 67.1756C77.9767 57.4749 81.7562 47.7467 85.7447 38.1036ZM89.1798 48.3556C88.1683 51.0178 87.3034 53.7305 86.5886 56.4821L91.7541 56.5013C90.9355 53.7751 90.2242 51.0105 89.1798 48.3556Z" fill="white"/>
<path d="M181.869 38.2077C188.212 38.0623 194.571 38.0733 200.9 38.2077C200.934 40.5279 200.976 42.8537 200.928 45.1767C197.259 45.2782 193.62 45.2727 189.968 45.27C189.968 46.7327 189.968 48.1955 189.968 49.6582C193.073 49.6582 196.177 49.6582 199.282 49.6582C199.282 51.9401 199.282 54.2256 199.282 56.5148C196.177 56.5148 193.073 56.5148 189.968 56.5148C189.968 60.0803 189.968 63.6457 189.968 67.2111C187.239 67.2111 184.51 67.2111 181.782 67.2111C181.827 57.5323 181.675 47.8673 181.869 38.2077Z" fill="white"/>
<path d="M214.614 38.1938C217.281 38.1445 219.951 38.1307 222.622 38.1719C222.805 45.4646 222.672 52.7628 222.715 60.0582C226.288 60.0582 229.862 60.0582 233.441 60.0582C233.441 62.4351 233.441 64.8121 233.441 67.1891C227.135 67.1891 220.831 67.1891 214.529 67.1891C214.571 57.524 214.419 47.8562 214.614 38.1938Z" fill="white"/>
<path d="M237.761 38.2022C240.456 38.1446 243.158 38.1254 245.859 38.1062C245.859 47.7969 245.859 57.493 245.859 67.1947C243.13 67.1837 240.402 67.1837 237.673 67.1947C237.718 57.5296 237.566 47.8645 237.761 38.2022Z" fill="white"/>
<path d="M251.312 38.2077C257.649 38.0623 263.989 38.0733 270.329 38.2077C270.388 40.5581 270.416 42.9086 270.442 45.2618H259.411C259.411 46.7245 259.411 48.1827 259.411 49.6363C262.578 49.6363 265.748 49.6363 268.917 49.7076C268.968 51.9712 269.002 54.2357 269.019 56.5011C265.815 56.5011 262.614 56.5011 259.422 56.5011C259.422 60.0684 259.422 63.6338 259.422 67.1974C256.69 67.1974 253.961 67.1974 251.236 67.1974C251.27 57.5323 251.118 47.8673 251.312 38.2077Z" fill="white"/>
<path d="M274.086 38.1223C280.386 38.1223 286.69 38.1223 292.998 38.1223C292.998 40.4993 292.998 42.8763 292.998 45.2532C289.419 45.2532 285.845 45.2532 282.272 45.2532V49.3672C285.377 49.3672 288.482 49.3672 291.587 49.3672C291.587 51.5613 291.587 53.7554 291.587 55.9495C288.482 55.9495 285.377 55.9495 282.272 55.9495V60.0635H293.562C293.562 62.4404 293.562 64.8174 293.562 67.1944C287.07 67.1944 280.578 67.1944 274.086 67.1944C274.086 57.5037 274.086 47.813 274.086 38.1223Z" fill="white"/>
</svg>