<?xml version="1.0" standalone="no"?>
<!DOCTYPE svg PUBLIC "-//W3C//DTD SVG 20010904//EN"
 "http://www.w3.org/TR/2001/REC-SVG-20010904/DTD/svg10.dtd">
<svg version="1.0" xmlns="http://www.w3.org/2000/svg"
 width="700.000000pt" height="700.000000pt" viewBox="0 0 700.000000 700.000000"
 preserveAspectRatio="xMidYMid meet">
<metadata>
Created by potrace 1.14, written by Peter Selinger 2001-2017
</metadata>
<g transform="translate(0.000000,700.000000) scale(0.100000,-0.100000)"
fill="#000000" stroke="none">
<path d="M146 5804 c81 -110 163 -221 184 -249 20 -27 75 -102 122 -165 46
-63 149 -203 228 -310 79 -107 194 -262 255 -345 61 -82 135 -184 165 -225 30
-41 58 -79 63 -85 7 -9 155 -209 193 -260 53 -72 829 -1125 844 -1145 10 -14
128 -173 262 -355 370 -502 566 -768 835 -1131 73 -99 148 -201 167 -228 l34
-49 124 168 c67 92 170 231 228 309 121 162 224 302 668 906 177 239 325 440
329 445 5 6 33 44 63 85 30 41 58 80 63 85 4 6 102 138 218 295 115 157 218
296 229 310 10 14 83 113 162 220 78 107 146 200 151 205 7 10 101 137 135
183 9 13 31 42 48 65 41 55 165 223 529 717 164 223 357 483 427 579 l129 173
-298 -152 c-164 -84 -347 -179 -408 -210 -60 -32 -200 -104 -310 -160 -452
-232 -596 -306 -711 -366 -457 -238 -627 -404 -699 -686 -23 -90 -23 -106 -24
-501 -1 -442 -4 -473 -58 -583 -19 -39 -454 -626 -604 -814 -11 -14 -102 -134
-202 -267 -100 -133 -184 -242 -187 -242 -3 0 -19 19 -36 42 -48 64 -317 419
-404 532 -148 194 -356 468 -400 529 -24 33 -50 67 -57 75 -26 26 -90 127
-110 171 -41 93 -44 132 -47 570 -2 475 -3 480 -76 635 -98 208 -267 345 -697
566 -87 45 -230 119 -318 164 -88 45 -234 121 -325 168 -91 46 -235 120 -320
164 -85 44 -280 144 -433 223 l-278 142 147 -198z m1497 -1178 c220 -91 349
-247 348 -421 0 -83 -4 -108 -18 -112 -15 -5 -453 520 -453 545 0 20 59 14
123 -12z m3837 12 c0 -12 -138 -189 -240 -308 -25 -28 -52 -60 -60 -70 -26
-31 -104 -123 -127 -150 -29 -34 -41 -20 -46 55 -11 167 75 306 257 415 87 52
216 87 216 58z"/>
<path d="M1879 3238 c0 -73 -2 -203 -4 -288 -2 -113 -16 -953 -18 -1045 0 -62
44 -164 96 -222 18 -20 68 -63 112 -96 44 -34 85 -65 90 -70 6 -4 75 -58 155
-118 80 -61 154 -118 165 -127 11 -10 47 -37 80 -62 33 -24 65 -48 70 -52 49
-40 165 -128 185 -141 l25 -16 -1 112 c-3 215 -47 365 -161 545 -46 73 -189
214 -276 272 -52 35 -68 52 -73 75 -5 26 -11 343 -13 692 l-1 113 -202 267
c-111 148 -208 274 -215 281 -11 11 -13 -10 -14 -120z"/>
<path d="M4919 3115 c-107 -141 -202 -268 -211 -283 -16 -25 -18 -72 -22 -429
-4 -279 -8 -407 -17 -420 -6 -10 -45 -41 -87 -68 -186 -121 -310 -278 -376
-477 -29 -87 -39 -157 -41 -298 -2 -152 -5 -149 79 -84 39 30 85 66 101 79 17
12 170 129 340 260 171 130 327 253 348 273 21 21 52 66 70 102 l32 65 -1 300
c-1 165 -4 480 -8 700 -4 220 -8 430 -8 468 0 37 -1 67 -2 67 -1 0 -90 -115
-197 -255z"/>
</g>
</svg>
