<svg width="124" height="70" viewBox="0 0 124 70" fill="none" xmlns="http://www.w3.org/2000/svg">
<g clip-path="url(#clip0_2515_900)">
<path d="M14.9142 46.5021H17.0428V33.5527H14.9142V33.2883H25.8754V37.2687H25.6633C25.4971 36.7751 25.3168 36.345 25.1258 35.9713C24.9349 35.6011 24.7051 35.2838 24.4363 35.0264C24.1676 34.7691 23.8494 34.5752 23.4781 34.4482C23.1068 34.3213 22.6613 34.2579 22.138 34.2579H18.9557V38.6965H20.2003C20.6211 38.6965 20.9782 38.6578 21.2717 38.5837C21.5652 38.5097 21.8198 38.3651 22.0284 38.1571C22.2405 37.9491 22.4173 37.6636 22.5658 37.3039C22.7108 36.9443 22.8558 37.1876 22.9972 36.6165L23.2094 35.9113V42.5041H22.9972C22.9088 42.1375 22.8169 41.7849 22.7179 41.443C22.6224 41.101 22.488 40.7978 22.3148 40.5334C22.1415 40.2689 21.9117 40.0574 21.6253 39.8988C21.3389 39.7401 20.9641 39.6625 20.5044 39.6625H18.9522V45.79H22.5729C23.2766 45.79 23.86 45.6419 24.3267 45.3457C24.7934 45.0496 25.1718 44.697 25.4688 44.2846C25.7623 43.8756 25.978 43.449 26.1194 43.0083C26.2608 42.5676 26.3492 42.2009 26.3881 41.9119L26.6003 42.617V46.763H14.9106V46.4986L14.9142 46.5021Z" fill="white"/>
<path d="M31.0026 46.5021H33.1312V41.0692L28.8174 33.5527H27.0742V33.2883H32.9403V33.5527H31.0238L34.4996 40.2161L38.1203 33.5527H36.5398V33.2883H40.6414V33.5527H38.7815L35.0476 40.4628V46.5021H37.1727V46.7665H31.0026V46.5021Z" fill="white"/>
<path d="M43.7778 46.5021H45.1922V33.5527H43.7778V33.2883H48.0916L51.6346 43.4737L51.3163 43.1211L55.0007 33.3447L59.4524 33.2883V33.5527H57.3274V46.5021H59.4524V46.7665H53.2823V46.5021H55.4109V33.6656H55.372L50.793 46.7842L46.2317 33.7995H46.1928V46.5021H48.3214V46.7665H43.7778V46.5021Z" fill="white"/>
<path d="M60.644 46.5022H61.9735L67.1465 32.95H67.9633L73.1752 46.5022H74.8795V46.7666H68.9781V46.5022H71.1067L69.0948 41.5382H64.6502L62.6383 46.5022H64.7669V46.7666H60.6476V46.5022H60.644ZM66.8707 35.4672L64.7634 40.9741H68.9781L66.8707 35.4672Z" fill="white"/>
<path d="M71.082 33.2883H77.0011V33.5527H74.876L79.1297 44.5313L83.3268 33.5527H81.2371V33.2883H85.3776V33.5527H84.0092L78.8539 47.0486H78.0194L72.8075 33.5527H71.082V33.2883Z" fill="white"/>
<path d="M99.751 46.5021H101.88V33.5527H99.751V33.2883H104.567L111.045 43.6041H111.08V33.5527H108.955V33.2883H114.209V33.5527H112.081V47.031H110.984L102.919 34.3284H102.88V46.5021H105.009V46.7665H99.751V46.5021Z" fill="white"/>
<path d="M114.266 42.6982H114.478C114.619 43.3786 114.8 43.9533 115.022 44.4222C115.245 44.8911 115.493 45.2753 115.761 45.5785C116.03 45.8817 116.309 46.1144 116.603 46.2801C116.896 46.4458 117.193 46.5657 117.494 46.6397C117.794 46.7138 118.081 46.7596 118.357 46.7737C118.632 46.7878 118.891 46.7913 119.135 46.7913C119.81 46.7913 120.365 46.6891 120.8 46.4881C121.235 46.2872 121.578 46.0298 121.836 45.7231C122.091 45.4128 122.271 45.0779 122.373 44.7183C122.476 44.3587 122.525 44.0273 122.525 43.7241C122.525 43.2834 122.441 42.9026 122.274 42.5889C122.108 42.2751 121.896 42.0071 121.641 41.785C121.387 41.5629 121.108 41.3831 120.807 41.2456C120.506 41.1081 120.224 40.9988 119.955 40.9248L117.752 40.262C116.716 39.9447 115.935 39.5287 115.404 39.0139C114.874 38.4957 114.609 37.8011 114.609 36.9303C114.609 36.3627 114.711 35.8339 114.916 35.3509C115.121 34.8644 115.408 34.4448 115.779 34.0923C116.15 33.7397 116.592 33.4612 117.112 33.2602C117.628 33.0593 118.194 32.957 118.809 32.957C119.255 32.957 119.63 32.9958 119.93 33.0698C120.231 33.1439 120.489 33.232 120.708 33.3237C120.924 33.4189 121.118 33.5035 121.291 33.5811C121.465 33.6551 121.638 33.6939 121.818 33.6939C121.984 33.6939 122.098 33.6727 122.154 33.6269C122.211 33.5846 122.292 33.4718 122.395 33.2955H122.663V36.7223H122.434C122.356 36.2675 122.225 35.8304 122.041 35.4073C121.857 34.9842 121.617 34.6105 121.323 34.2897C121.03 33.9689 120.676 33.708 120.259 33.5141C119.845 33.3166 119.361 33.2214 118.813 33.2214C118.505 33.2214 118.169 33.2638 117.798 33.3448C117.427 33.4259 117.084 33.5705 116.762 33.7714C116.444 33.9724 116.179 34.2368 115.966 34.5647C115.754 34.8926 115.648 35.3086 115.648 35.8127C115.648 36.2182 115.729 36.5602 115.899 36.8457C116.065 37.1313 116.281 37.371 116.543 37.5649C116.804 37.7588 117.098 37.9245 117.423 38.0585C117.748 38.1925 118.077 38.3088 118.41 38.4075L120.729 39.1268C120.973 39.2008 121.277 39.303 121.649 39.43C122.02 39.5569 122.38 39.7473 122.731 39.9976C123.081 40.2514 123.381 40.5828 123.632 41.0024C123.88 41.4184 124.007 41.9472 124.007 42.5924C124.007 43.1847 123.894 43.7523 123.671 44.2882C123.448 44.8241 123.127 45.2965 122.702 45.709C122.281 46.1179 121.769 46.4458 121.168 46.6926C120.567 46.9394 119.891 47.0628 119.138 47.0628C118.869 47.0628 118.632 47.0628 118.427 47.0522C118.222 47.0452 118.031 47.0311 117.851 47.0064C117.671 46.9817 117.494 46.9535 117.314 46.9218C117.133 46.89 116.935 46.8442 116.72 46.7808C116.465 46.7067 116.189 46.6186 115.896 46.5163C115.602 46.4176 115.348 46.3647 115.128 46.3647C114.937 46.3647 114.807 46.4035 114.736 46.4776C114.665 46.5516 114.605 46.6538 114.556 46.7808H114.269V42.7123L114.266 42.6982Z" fill="white"/>
<path d="M68.009 4.64669C67.9913 4.65727 67.0508 5.21783 67.0331 5.22841C66.1527 5.82775 64.8797 6.72324 64.8727 8.91614C64.8656 10.2171 64.908 11.3241 64.8903 12.0468C64.8762 12.618 64.6888 13.1715 64.3493 13.6157L59.6572 19.789V23.5507L77.0644 0L68.009 4.64669ZM67.1993 9.44498C66.7007 7.3931 69.4516 6.50466 69.5223 6.75145C69.5577 6.87484 67.7509 8.94082 67.3054 9.49081C67.2665 9.53664 67.2099 9.50491 67.1957 9.4485" fill="#D2A749"/>
<path d="M67.7017 13.0482L65.6544 15.7453C65.6049 15.8087 65.5802 15.8898 65.5767 15.9744L65.5307 19.7679C65.5307 19.8913 65.467 20.0077 65.368 20.0746L64.8447 20.4272C63.6461 21.2346 62.9353 22.5919 62.9601 24.0338L62.9742 24.8483L67.1112 21.6823C67.4118 21.4531 67.6381 21.1253 67.7512 20.748C67.8007 20.5788 67.8255 20.406 67.8219 20.2298L67.6982 13.0447L67.7017 13.0482Z" fill="#D2A749"/>
<path d="M42.2539 0L59.6575 23.5543V19.7925L54.9654 13.6192C54.626 13.175 54.4386 12.6215 54.4244 12.0504C54.4103 11.3276 54.4492 10.2206 54.4421 8.91967C54.435 6.72324 53.1621 5.83128 52.2817 5.23193C52.264 5.22136 51.3235 4.65727 51.3058 4.65021L42.2539 0ZM52.0094 9.48376C51.5639 8.93377 49.7571 6.86779 49.7924 6.7444C49.8631 6.49761 52.6141 7.38605 52.1155 9.43793C52.1013 9.49786 52.0448 9.52606 52.0059 9.48023" fill="#D2A749"/>
<path d="M51.6168 13.0482L53.664 15.7453C53.7135 15.8087 53.7383 15.8898 53.7418 15.9744L53.7878 19.7679C53.7878 19.8913 53.8514 20.0077 53.9504 20.0746L54.2687 20.2897C55.5946 21.1817 56.3796 22.6836 56.3513 24.2771L56.3407 24.8483L52.2037 21.6823C51.9032 21.4531 51.6769 21.1253 51.5637 20.748C51.5142 20.5788 51.4895 20.406 51.493 20.2298L51.6168 13.0447V13.0482Z" fill="#D2A749"/>
<path d="M8.74443 65.7869H8.1893C7.78974 65.7869 7.45383 65.7059 7.18864 65.5472V66.9892C7.18864 68.0292 6.92698 68.7801 6.40367 69.2385C5.82025 69.7461 4.88678 70.0035 3.60325 70.0035C2.64856 70.0035 1.88481 69.859 1.30846 69.5663C0.537637 69.1715 0.155762 68.6356 0.155762 67.9552C0.155762 67.6308 0.283054 67.3382 0.541173 67.0808C0.848795 66.7671 1.26957 66.6084 1.80348 66.6084C2.70514 66.6084 3.15773 66.9257 3.15773 67.5603C3.15773 67.8177 3.05165 68.0398 2.83596 68.2302C2.57784 68.4523 2.23486 68.5651 1.80348 68.5651C1.44636 68.5651 1.05034 68.4452 0.618963 68.2055C0.618963 68.8013 1.03266 69.2561 1.86359 69.5699C2.25254 69.7179 2.64503 69.792 3.03397 69.792C3.54668 69.792 3.91087 69.651 4.12656 69.3724C4.27861 69.1715 4.35639 68.6955 4.35639 67.9411V57.5019H3.07994V57.3044H8.14333V57.5019H7.18864V64.4684C7.18864 65.0677 7.53869 65.3674 8.23526 65.3674H8.74443V65.7975V65.7869Z" fill="white"/>
<path d="M11.0812 65.3569H8.28076V65.7871H11.0812V65.3569Z" fill="white"/>
<path d="M13.4044 65.3569H10.604V65.7871H13.4044V65.3569Z" fill="white"/>
<path d="M30.2744 65.787H21.0811C20.6815 65.787 20.3492 65.7059 20.0804 65.5472V65.787H12.8955V65.3569H17.5876V57.4208H16.8663V57.2234H20.6497V57.4208H20.0804V64.4543C20.0804 65.0537 20.4305 65.3533 21.1271 65.3533H30.2744V65.7834V65.787Z" fill="white"/>
<path d="M32.6608 65.3569H29.8604V65.7871H32.6608V65.3569Z" fill="white"/>
<path d="M43.9051 65.787H43.1979C42.7983 65.787 37.5157 65.7059 37.247 65.5472V65.787H32.1836V65.3569H34.7542V57.4208H34.0329V57.2234H38.5234V57.4208H37.247V64.4543C37.247 65.0537 42.5473 65.3533 43.2438 65.3533H43.9051V65.7834V65.787Z" fill="white"/>
<path d="M43.4562 65.3569H46.8259C45.7899 64.7435 45.2701 63.4425 45.2701 61.4435C45.2701 60.2237 45.3974 59.3353 45.6555 58.7747C46.1576 57.6712 47.1901 57.1177 48.7494 57.1177C50.0011 57.1177 50.8815 57.4808 51.3942 58.2071C51.8362 58.8382 52.0554 59.8958 52.0554 61.3801C52.0554 63.0336 51.7938 64.1582 51.2705 64.7505C51.0548 64.9973 50.8108 65.1947 50.5315 65.3499H53.3001V65.78H43.4526V65.3499L43.4562 65.3569ZM47.9043 58.616V64.2182C47.9043 64.962 48.1589 65.3322 48.6751 65.3322C49.1914 65.3322 49.4283 64.962 49.4283 64.2182V58.616C49.4283 57.925 49.1772 57.5795 48.6751 57.5795C48.173 57.5795 47.9043 57.925 47.9043 58.616Z" fill="white"/>
<path d="M55.5807 65.3569H52.7803V65.7871H55.5807V65.3569Z" fill="white"/>
<path d="M72.4819 65.787H71.7747C71.3752 65.787 63.971 65.7059 63.7023 65.5472V65.787H55.103V65.3569H61.2095V57.4208H60.4882V57.2234H64.2716V57.4208H63.7023V64.4543C63.7023 65.0537 71.1241 65.3533 71.8207 65.3533H72.4819V65.7834V65.787Z" fill="white"/>
<path d="M70.6538 65.3568H73.7937V57.463H73.0547V57.2656H76.3183V57.805C76.6365 57.3819 77.1245 57.1704 77.7822 57.1704C79.5784 57.1704 80.473 58.5489 80.473 61.3059C80.473 63.4318 80.084 64.7786 79.3026 65.3462C78.85 65.6741 78.3196 65.8362 77.7008 65.8362C77.1457 65.8362 76.686 65.6318 76.3148 65.2263V65.7834H70.6538V65.3532V65.3568ZM76.3148 59.455V63.6504C76.3148 63.9642 76.3749 64.2674 76.4986 64.56C76.6825 65.0042 76.9689 65.2298 77.3614 65.2298C77.669 65.2298 77.8246 64.9584 77.8246 64.4154V58.771C77.8246 58.1117 77.669 57.7839 77.3614 57.7839C76.9724 57.7839 76.6825 58.0201 76.4986 58.496C76.3749 58.8098 76.3148 59.1306 76.3148 59.4585" fill="white"/>
<path d="M103.057 57.2268V57.4842H102.272V65.3603H106.441V65.7904H99.7792V59.0037C99.7792 58.3162 99.3902 57.9918 98.6088 58.0271C98.1987 58.0447 97.9936 58.1717 97.9936 58.4149V65.3638H98.5487V65.7939H90.0873C88.8568 65.7939 88.0613 65.4731 87.7006 64.835C87.3117 64.1651 87.1172 63.0475 87.1172 61.4822C87.1172 58.6441 88.1567 57.2268 90.2394 57.2268C90.7309 57.2268 91.1304 57.3114 91.438 57.4771C91.5724 57.5476 91.8447 57.7486 92.2548 58.087L91.5618 58.147C91.3143 57.8332 91.0279 57.6745 90.699 57.6745C90.6071 57.6745 90.5152 57.6851 90.4232 57.7098C89.9706 57.812 89.7479 58.1223 89.7479 58.637V63.5763C89.7479 64.7715 90.0095 65.3673 90.5329 65.3673H95.4866V57.9813C95.7624 57.4771 96.3671 57.2268 97.3005 57.2268C98.234 57.2268 99.0791 57.4771 99.7792 57.9813V57.2339H103.057V57.2268Z" fill="white"/>
<path d="M116.525 65.7657H99.8711V64.0029H116.843V65.4484C116.843 65.6247 116.702 65.7657 116.525 65.7657Z" fill="white"/>
<path d="M97.7496 63.8267H88.4043V65.3603H97.7496V63.8267Z" fill="white"/>
<path d="M61.8036 64.1228H50.4146V65.6564H61.8036V64.1228Z" fill="white"/>
<path d="M74.1793 63.7703H63.4868V65.4132H74.1793V63.7703Z" fill="white"/>
<path d="M34.931 63.7703H19.6064V65.4132H34.931V63.7703Z" fill="white"/>
<path d="M19.6489 63.9431H5.46289V65.586H19.6489V63.9431Z" fill="white"/>
<path d="M113.417 58.9438C114.343 58.4713 115.231 58.2457 116.08 58.2704C117.147 58.2986 117.925 58.6441 118.41 59.3069C118.905 59.9979 119.149 61.045 119.149 62.4517C119.149 63.3754 118.961 64.1651 118.59 64.8209C118.226 65.4519 117.441 65.7657 116.232 65.7657H109.199V65.3427H115.793C116.306 65.3427 116.564 64.7539 116.564 63.5799V59.6489C116.564 59.0072 116.21 58.6864 115.507 58.6864C114.962 58.6864 114.319 58.9297 113.58 59.4197C112.837 59.9098 111.716 60.1248 110.214 60.0684L109.895 59.8322C110.61 59.7934 110.97 59.4655 110.97 58.845" fill="white"/>
<path d="M123.502 54.1455L111.084 59.3528C111.002 59.3881 110.928 59.4409 110.868 59.5044L110.688 59.7089C110.373 60.0614 109.793 59.9239 109.669 59.4691C109.595 59.1906 109.729 58.898 109.995 58.7781L123.095 52.8164L123.502 54.1455Z" fill="white"/>
<path d="M93.7539 67.9833C93.7539 68.2125 93.6549 68.4064 93.4604 68.5615C93.2659 68.7166 93.0361 68.7942 92.7709 68.7942C92.5057 68.7942 92.2794 68.7131 92.0955 68.558C91.9117 68.3993 91.8197 68.2089 91.8197 67.9833C91.8127 67.733 91.9011 67.525 92.0814 67.3522C92.2617 67.183 92.4915 67.0984 92.7709 67.0984C93.0502 67.0984 93.2836 67.183 93.471 67.3593C93.6584 67.532 93.7539 67.74 93.7539 67.9833Z" fill="white"/>
<path d="M73.5996 67.9833C73.5996 68.2125 73.5006 68.4064 73.3061 68.5615C73.1116 68.7166 72.8818 68.7942 72.6166 68.7942C72.3514 68.7942 72.1251 68.7131 71.9412 68.558C71.7574 68.3993 71.6654 68.2089 71.6654 67.9833C71.6584 67.733 71.7468 67.525 71.9271 67.3522C72.1074 67.183 72.3373 67.0984 72.6166 67.0984C72.8959 67.0984 73.1293 67.183 73.3167 67.3593C73.5041 67.532 73.5996 67.74 73.5996 67.9833Z" fill="white"/>
<path d="M75.7954 67.9833C75.7954 68.2125 75.6964 68.4064 75.5019 68.5615C75.3074 68.7166 75.0776 68.7942 74.8124 68.7942C74.5472 68.7942 74.3209 68.7131 74.137 68.558C73.9532 68.3993 73.8612 68.2089 73.8612 67.9833C73.8542 67.733 73.9426 67.525 74.1229 67.3522C74.3032 67.1795 74.5331 67.0984 74.8124 67.0984C75.0917 67.0984 75.3251 67.183 75.5125 67.3593C75.6999 67.532 75.7954 67.74 75.7954 67.9833Z" fill="white"/>
<path d="M32.958 67.9833C32.958 68.2125 32.859 68.4064 32.6645 68.5615C32.47 68.7166 32.2402 68.7942 31.975 68.7942C31.7098 68.7942 31.4835 68.7131 31.2996 68.558C31.1158 68.3993 31.0238 68.2089 31.0238 67.9833C31.0168 67.733 31.1052 67.525 31.2855 67.3522C31.4658 67.183 31.6956 67.0984 31.975 67.0984C32.2543 67.0984 32.4877 67.183 32.6751 67.3593C32.8625 67.532 32.958 67.74 32.958 67.9833Z" fill="white"/>
<path d="M35.1538 67.9833C35.1538 68.2125 35.0548 68.4064 34.8603 68.5615C34.6658 68.7166 34.436 68.7942 34.1708 68.7942C33.9056 68.7942 33.6793 68.7131 33.4954 68.558C33.3116 68.3993 33.2196 68.2089 33.2196 67.9833C33.2126 67.733 33.301 67.525 33.4813 67.3522C33.6616 67.183 33.8915 67.0984 34.1708 67.0984C34.4501 67.0984 34.6835 67.183 34.8709 67.3593C35.0583 67.532 35.1538 67.74 35.1538 67.9833Z" fill="white"/>
<path d="M17.7924 55.5241C17.7924 55.7532 17.6934 55.9471 17.499 56.1023C17.3045 56.2574 17.0746 56.335 16.8095 56.335C16.5443 56.335 16.318 56.2539 16.1341 56.0987C15.9502 55.9401 15.8583 55.7497 15.8583 55.5241C15.8512 55.2738 15.9396 55.0658 16.12 54.893C16.3003 54.7238 16.5301 54.6392 16.8095 54.6392C17.0888 54.6392 17.3222 54.7238 17.5096 54.9001C17.697 55.0728 17.7924 55.2808 17.7924 55.5241Z" fill="white"/>
<path d="M6.94087 55.5241C6.94087 55.7532 6.84187 55.9471 6.64739 56.1023C6.45292 56.2574 6.22309 56.335 5.95789 56.335C5.6927 56.335 5.46641 56.2539 5.28254 56.0987C5.09867 55.9401 5.00674 55.7497 5.00674 55.5241C4.99967 55.2738 5.08807 55.0658 5.2684 54.893C5.44873 54.7238 5.67856 54.6392 5.95789 54.6392C6.23723 54.6392 6.4706 54.7238 6.658 54.9001C6.8454 55.0728 6.94087 55.2808 6.94087 55.5241Z" fill="white"/>
<path d="M49.6015 53.8107C49.6015 54.0399 49.5025 54.2338 49.308 54.3889C49.1136 54.544 48.8837 54.6216 48.6185 54.6216C48.3533 54.6216 48.1271 54.544 47.9432 54.3854C47.7593 54.2267 47.6674 54.0363 47.6674 53.8107C47.6603 53.5604 47.7487 53.3524 47.929 53.1796C48.1094 53.0069 48.3392 52.9258 48.6185 52.9258C48.8979 52.9258 49.1312 53.0104 49.3186 53.1867C49.506 53.3594 49.6015 53.5674 49.6015 53.8107Z" fill="white"/>
<path d="M48.5053 55.7355C48.5053 55.9647 48.4063 56.1586 48.2118 56.3137C48.0174 56.4688 47.7875 56.5464 47.5223 56.5464C47.2572 56.5464 47.0309 56.4653 46.847 56.3102C46.6631 56.1515 46.5712 55.9611 46.5712 55.7355C46.5641 55.4852 46.6525 55.2772 46.8328 55.1044C47.0132 54.9352 47.243 54.8506 47.5223 54.8506C47.8017 54.8506 48.0351 54.9352 48.2225 55.1115C48.4099 55.2842 48.5053 55.4922 48.5053 55.7355Z" fill="white"/>
<path d="M50.7011 55.7355C50.7011 55.9647 50.6021 56.1586 50.4076 56.3137C50.2132 56.4688 49.9833 56.5464 49.7181 56.5464C49.453 56.5464 49.2267 56.4653 49.0428 56.3102C48.8589 56.1515 48.767 55.9611 48.767 55.7355C48.7599 55.4852 48.8483 55.2772 49.0287 55.1044C49.209 54.9352 49.4388 54.8506 49.7181 54.8506C49.9975 54.8506 50.2309 54.9352 50.4183 55.1115C50.6057 55.2842 50.7011 55.4922 50.7011 55.7355Z" fill="white"/>
<path d="M122.68 52.0437L122.345 52.1584L123.496 55.4919L123.831 55.3771L122.68 52.0437Z" fill="white"/>
<path d="M93.1246 58.0696H90.2959V58.4221H93.1246V58.0696Z" fill="white"/>
<path d="M96.0947 67.9833C96.0947 68.2125 95.9957 68.4064 95.8012 68.5615C95.6067 68.7166 95.3769 68.7942 95.1117 68.7942C94.8465 68.7942 94.6202 68.7131 94.4363 68.558C94.2525 68.3993 94.1605 68.2089 94.1605 67.9833C94.1535 67.733 94.2419 67.525 94.4222 67.3522C94.6025 67.183 94.8324 67.0984 95.1117 67.0984C95.391 67.0984 95.6244 67.183 95.8118 67.3593C95.9992 67.532 96.0947 67.74 96.0947 67.9833Z" fill="white"/>
<path d="M46.8787 63.8513H37.1055V65.4942H46.8787V63.8513Z" fill="white"/>
<path d="M86.0103 46.5727H88.1176V33.6233H86.0103V33.3589H96.869V37.3392H96.6603C96.4942 36.8457 96.3174 36.4155 96.13 36.0418C95.939 35.6717 95.7127 35.3544 95.4475 35.097C95.1823 34.8396 94.8641 34.6457 94.4999 34.5188C94.1322 34.3919 93.6902 34.3284 93.1704 34.3284H90.0199V38.7671H91.254C91.6712 38.7671 92.0248 38.7283 92.3183 38.6543C92.6082 38.5802 92.8593 38.4357 93.0679 38.2277C93.2765 38.0197 93.4533 37.7341 93.5983 37.3745C93.7432 37.0149 93.8847 37.2582 94.0261 36.687L94.2347 35.9819V42.5747H94.0261C93.9377 42.208 93.8458 41.8555 93.7503 41.5135C93.6548 41.1715 93.524 40.8683 93.3508 40.6039C93.181 40.3395 92.9512 40.128 92.6683 39.9693C92.3819 39.8107 92.0142 39.7331 91.5581 39.7331H90.0199V45.8605H93.6089C94.3054 45.8605 94.8853 45.7125 95.345 45.4163C95.8082 45.1202 96.183 44.7676 96.4729 44.3551C96.7629 43.9461 96.9786 43.5196 97.12 43.0789C97.2579 42.6382 97.3463 42.2715 97.3852 41.9824L97.5938 42.6875V46.8336H86.0138V46.5692L86.0103 46.5727Z" fill="white"/>
<path d="M0 46.5021H2.1286V33.5527H0V33.2883H6.01808V33.5527H4.04152V39.5744H3.87887L9.66358 33.5527H7.67287V33.2883H11.9973V33.5527H10.4061L5.5372 38.6472L12.4923 46.5021H13.7581V46.7665H8.22094V46.5021H9.94645L4.1971 39.8388H4.04152V46.5021H6.01808V46.7665H0V46.5021Z" fill="white"/>
</g>
<defs>
<clipPath id="clip0_2515_900">
<rect width="124" height="70" fill="white"/>
</clipPath>
</defs>
</svg>
